<svg version="1.1" id="Layer_1" xmlns="http://www.w3.org/2000/svg" xmlns:xlink="http://www.w3.org/1999/xlink" x="0px" y="0px"
	 width="100%" viewBox="0 0 125 58" enable-background="new 0 0 125 58" xml:space="preserve">
<path fill="#E76C6C" opacity="1.000000" stroke="none" 
	d="
M92.000000,59.000000 
	C61.333340,59.000000 31.166677,59.000000 1.000012,59.000000 
	C1.000008,39.666676 1.000008,20.333351 1.000004,1.000020 
	C42.666653,1.000013 84.333305,1.000013 125.999969,1.000007 
	C125.999977,20.333313 125.999977,39.666626 125.999985,58.999969 
	C114.833336,59.000000 103.666664,59.000000 92.000000,59.000000 
M6.008867,36.498302 
	C6.008867,41.951664 6.008867,47.405029 6.008867,52.981705 
	C44.622860,52.981705 82.634048,52.981705 120.609573,52.981705 
	C120.609573,37.105236 120.609573,21.709047 120.609573,6.314232 
	C82.307724,6.314232 44.388256,6.314232 6.008867,6.314232 
	C6.008867,16.241905 6.008867,25.870304 6.008867,36.498302 
z"/>
<path fill="#FFFDFD" opacity="1.000000" stroke="none" 
	d="
M6.008867,35.998505 
	C6.008867,25.870304 6.008867,16.241905 6.008867,6.314232 
	C44.388256,6.314232 82.307724,6.314232 120.609573,6.314232 
	C120.609573,21.709047 120.609573,37.105236 120.609573,52.981705 
	C82.634048,52.981705 44.622860,52.981705 6.008867,52.981705 
	C6.008867,47.405029 6.008867,41.951664 6.008867,35.998505 
M85.752960,23.303246 
	C84.451424,23.812963 83.052422,24.159376 81.868446,24.866047 
	C79.324112,26.384659 75.708282,27.584841 74.739586,29.856953 
	C73.743095,32.194263 74.428871,36.508991 76.122887,38.374107 
	C77.773544,40.191494 81.602669,40.218174 84.531670,40.610703 
	C86.096840,40.820457 87.780891,40.143055 89.856758,39.790352 
	C89.856758,34.195911 89.961510,28.225691 89.759781,22.265842 
	C89.723640,21.198307 88.420837,20.173645 87.702881,19.129189 
	C87.066696,20.236788 86.430519,21.344387 85.752960,23.303246 
M106.226532,24.537802 
	C106.226532,21.101490 106.226532,17.665176 106.226532,13.961208 
	C103.564453,14.096546 101.145706,14.219514 98.240959,14.367188 
	C98.461578,17.948605 97.558479,21.961102 99.128853,24.342487 
	C101.403755,27.792252 100.807091,30.830923 100.471481,34.208229 
	C100.274086,36.194599 99.784988,38.226917 100.044434,40.155518 
	C100.198906,41.303883 101.550140,42.291256 102.363335,43.351006 
	C103.281303,42.225487 104.943054,41.120171 104.974281,39.970573 
	C105.059372,36.837112 104.204025,33.683395 104.223404,30.540796 
	C104.234291,28.775881 105.239990,27.017097 106.226532,24.537802 
M12.467659,36.592304 
	C16.484236,42.392292 20.922531,42.880165 26.884327,36.870251 
	C23.838442,36.682194 21.884747,36.561569 19.592445,36.420040 
	C20.700495,35.008369 21.782585,33.646030 22.846577,32.269699 
	C23.925230,30.874403 24.985994,29.465277 26.096687,28.006943 
	C23.090672,24.471283 19.634701,23.958315 16.057775,25.655024 
	C11.737217,27.704473 11.301781,31.606995 12.467659,36.592304 
M58.769260,27.129578 
	C53.830917,31.800419 56.946815,40.348583 63.070404,41.094543 
	C66.724525,41.539677 69.714111,40.441326 71.359848,36.967163 
	C73.086685,33.321770 72.905334,29.704964 69.814400,26.901320 
	C66.557137,23.946808 62.906746,24.042969 58.769260,27.129578 
M44.990379,24.995306 
	C40.519291,26.472879 38.590385,29.758217 39.133850,34.223297 
	C39.600445,38.056763 41.992214,40.557636 45.963902,41.110001 
	C50.626022,41.758400 54.547516,38.561783 54.986931,33.888138 
	C55.506931,28.357321 52.164902,25.087831 44.990379,24.995306 
M29.237413,34.569546 
	C29.951845,36.882858 27.298670,41.308598 33.381985,40.817223 
	C33.381985,38.877499 33.269985,37.226547 33.407295,35.596592 
	C33.633408,32.912506 32.056992,29.158239 37.002045,29.034706 
	C36.927094,27.775368 37.184326,26.344658 36.655449,25.319496 
	C36.326187,24.681259 34.808067,24.656347 32.384136,23.917349 
	C34.667305,22.750374 35.806843,22.361185 36.700420,21.658993 
	C37.670799,20.896448 38.412369,19.842731 39.253708,18.915977 
	C38.135311,18.501242 36.995468,17.682365 35.902164,17.740398 
	C30.635098,18.019974 26.686790,24.912828 28.735107,29.787899 
	C29.223562,30.950438 29.086107,32.375961 29.237413,34.569546 
M112.570396,16.268229 
	C111.967735,20.097290 109.750832,24.711632 111.141769,27.570868 
	C113.214241,31.831078 111.826248,35.457394 112.068069,39.356155 
	C112.152985,40.725143 113.618652,42.008488 114.453850,43.330936 
	C115.269096,41.974476 116.766785,40.626213 116.783195,39.260155 
	C116.860352,32.838905 116.518501,26.413082 116.353851,19.988182 
	C116.305038,18.083296 116.346329,16.176102 116.346329,13.464876 
	C114.627220,14.605691 113.829582,15.135012 112.570396,16.268229 
z"/>
<path fill="#E77070" opacity="1.000000" stroke="none" 
	d="
M85.773651,22.877615 
	C86.430519,21.344387 87.066696,20.236788 87.702881,19.129189 
	C88.420837,20.173645 89.723640,21.198307 89.759781,22.265842 
	C89.961510,28.225691 89.856758,34.195911 89.856758,39.790352 
	C87.780891,40.143055 86.096840,40.820457 84.531670,40.610703 
	C81.602669,40.218174 77.773544,40.191494 76.122887,38.374107 
	C74.428871,36.508991 73.743095,32.194263 74.739586,29.856953 
	C75.708282,27.584841 79.324112,26.384659 81.868446,24.866047 
	C83.052422,24.159376 84.451424,23.812963 85.773651,22.877615 
M83.725731,36.550144 
	C84.091911,34.512867 84.855789,32.420055 84.583771,30.471886 
	C84.501343,29.881546 81.114792,28.917585 80.037621,29.528418 
	C78.886665,30.181093 77.737053,33.048580 78.271774,33.952019 
	C79.110893,35.369762 81.363449,35.950932 83.725731,36.550144 
z"/>
<path fill="#E97777" opacity="1.000000" stroke="none" 
	d="
M106.012009,24.896675 
	C105.239990,27.017097 104.234291,28.775881 104.223404,30.540796 
	C104.204025,33.683395 105.059372,36.837112 104.974281,39.970573 
	C104.943054,41.120171 103.281303,42.225487 102.363342,43.351006 
	C101.550140,42.291256 100.198906,41.303883 100.044434,40.155518 
	C99.784988,38.226917 100.274086,36.194599 100.471481,34.208229 
	C100.807091,30.830923 101.403755,27.792252 99.128853,24.342487 
	C97.558479,21.961102 98.461578,17.948605 98.240959,14.367188 
	C101.145706,14.219514 103.564453,14.096546 106.226532,13.961208 
	C106.226532,17.665176 106.226532,21.101490 106.012009,24.896675 
z"/>
<path fill="#E87070" opacity="1.000000" stroke="none" 
	d="
M12.309259,36.211517 
	C11.301781,31.606995 11.737217,27.704473 16.057775,25.655024 
	C19.634701,23.958315 23.090672,24.471283 26.096687,28.006943 
	C24.985994,29.465277 23.925230,30.874403 22.846577,32.269699 
	C21.782585,33.646030 20.700495,35.008369 19.592445,36.420040 
	C21.884747,36.561569 23.838442,36.682194 26.884327,36.870251 
	C20.922531,42.880165 16.484236,42.392292 12.309259,36.211517 
z"/>
<path fill="#E87171" opacity="1.000000" stroke="none" 
	d="
M59.049923,26.857103 
	C62.906746,24.042969 66.557137,23.946808 69.814400,26.901320 
	C72.905334,29.704964 73.086685,33.321770 71.359848,36.967163 
	C69.714111,40.441326 66.724525,41.539677 63.070404,41.094543 
	C56.946815,40.348583 53.830917,31.800419 59.049923,26.857103 
M61.058105,30.937569 
	C61.702332,32.906166 62.125713,35.008961 63.173080,36.732590 
	C63.388153,37.086533 66.846672,36.400860 67.208862,35.529095 
	C67.848854,33.988655 67.940392,31.011009 67.013832,30.328341 
	C65.794281,29.429804 63.369305,30.167345 61.058105,30.937569 
z"/>
<path fill="#E76F6F" opacity="1.000000" stroke="none" 
	d="
M45.392872,24.945694 
	C52.164902,25.087831 55.506931,28.357321 54.986931,33.888138 
	C54.547516,38.561783 50.626022,41.758400 45.963902,41.110001 
	C41.992214,40.557636 39.600445,38.056763 39.133850,34.223297 
	C38.590385,29.758217 40.519291,26.472879 45.392872,24.945694 
M44.488373,29.838785 
	C44.479382,31.922905 44.140732,34.097961 44.674339,36.032406 
	C44.822834,36.570724 48.119560,37.078938 48.960083,36.381485 
	C50.077545,35.454239 51.100929,32.405926 50.582264,31.903948 
	C49.213722,30.579430 46.991386,30.137093 44.488373,29.838785 
z"/>
<path fill="#E87474" opacity="1.000000" stroke="none" 
	d="
M29.236975,34.125034 
	C29.086107,32.375961 29.223562,30.950438 28.735107,29.787899 
	C26.686790,24.912828 30.635098,18.019974 35.902164,17.740398 
	C36.995468,17.682365 38.135311,18.501242 39.253708,18.915977 
	C38.412369,19.842731 37.670799,20.896448 36.700420,21.658993 
	C35.806843,22.361185 34.667305,22.750374 32.384136,23.917349 
	C34.808067,24.656347 36.326187,24.681259 36.655449,25.319496 
	C37.184326,26.344658 36.927094,27.775368 37.002045,29.034706 
	C32.056992,29.158239 33.633408,32.912506 33.407295,35.596592 
	C33.269985,37.226547 33.381985,38.877499 33.381985,40.817223 
	C27.298670,41.308598 29.951845,36.882858 29.236975,34.125034 
z"/>
<path fill="#E76E6E" opacity="1.000000" stroke="none" 
	d="
M112.801170,15.966280 
	C113.829582,15.135012 114.627220,14.605691 116.346329,13.464876 
	C116.346329,16.176102 116.305038,18.083296 116.353851,19.988182 
	C116.518501,26.413082 116.860352,32.838905 116.783195,39.260155 
	C116.766785,40.626213 115.269096,41.974476 114.453850,43.330936 
	C113.618652,42.008488 112.152985,40.725143 112.068069,39.356155 
	C111.826248,35.457394 113.214241,31.831078 111.141769,27.570868 
	C109.750832,24.711632 111.967735,20.097290 112.801170,15.966280 
z"/>
<path fill="#FDF5F5" opacity="1.000000" stroke="none" 
	d="
M83.371582,36.718266 
	C81.363449,35.950932 79.110893,35.369762 78.271774,33.952019 
	C77.737053,33.048580 78.886665,30.181093 80.037621,29.528418 
	C81.114792,28.917585 84.501343,29.881546 84.583771,30.471886 
	C84.855789,32.420055 84.091911,34.512867 83.371582,36.718266 
z"/>
<path fill="#FEF9F9" opacity="1.000000" stroke="none" 
	d="
M61.260368,30.569492 
	C63.369305,30.167345 65.794281,29.429804 67.013832,30.328341 
	C67.940392,31.011009 67.848854,33.988655 67.208862,35.529095 
	C66.846672,36.400860 63.388153,37.086533 63.173080,36.732590 
	C62.125713,35.008961 61.702332,32.906166 61.260368,30.569492 
z"/>
<path fill="#FEFAFA" opacity="1.000000" stroke="none" 
	d="
M44.798676,29.591154 
	C46.991386,30.137093 49.213722,30.579430 50.582264,31.903948 
	C51.100929,32.405926 50.077545,35.454239 48.960083,36.381485 
	C48.119560,37.078938 44.822834,36.570724 44.674339,36.032406 
	C44.140732,34.097961 44.479382,31.922905 44.798676,29.591154 
z"/>
</svg>